<svg width="20.000000" height="19.000000" viewBox="0 0 20 19" fill="none" xmlns="http://www.w3.org/2000/svg" xmlns:xlink="http://www.w3.org/1999/xlink">
	<desc>
			Created with Pixso.
	</desc>
	<defs/>
	<path d="M19.58 5.82C19.85 5.46 20 5.04 20 4.59C20 3.41 18.99 2.45 17.74 2.45C17.27 2.45 16.83 2.58 16.45 2.84C16.07 2.58 15.63 2.45 15.16 2.45C14.69 2.45 14.25 2.58 13.87 2.84C13.5 2.6 13.04 2.45 12.58 2.45C12.11 2.45 11.67 2.58 11.29 2.84C10.9 2.58 10.45 2.45 10 2.45C9.51 2.45 9.07 2.6 8.7 2.84C8.32 2.58 7.88 2.45 7.41 2.45C6.95 2.45 6.51 2.58 6.12 2.84L6.12 1.05L4.28 0L3.54 0L3.54 2.84C2.95 3.24 2.58 3.89 2.58 4.59C2.58 5.78 3.58 6.74 4.83 6.74C5.3 6.74 5.74 6.6 6.12 6.35C6.51 6.6 6.95 6.74 7.41 6.74C7.88 6.74 8.34 6.6 8.7 6.35C9.07 6.6 9.53 6.74 10 6.74C10.46 6.74 10.9 6.6 11.29 6.35C11.65 6.6 12.11 6.74 12.58 6.74C13.04 6.74 13.48 6.6 13.87 6.35C14.24 6.6 14.68 6.74 15.14 6.74C15.26 6.74 15.39 6.72 15.5 6.71C15.48 6.82 15.47 6.93 15.47 7.05C15.47 7.17 15.48 7.28 15.5 7.38C14.93 7.3 14.34 7.43 13.85 7.75C13.5 7.49 13.04 7.36 12.58 7.36C12.11 7.36 11.67 7.49 11.29 7.75C10.9 7.49 10.45 7.36 10 7.36C9.53 7.36 9.09 7.49 8.7 7.75C8.34 7.49 7.9 7.36 7.41 7.36C6.95 7.36 6.49 7.49 6.12 7.75C5.74 7.49 5.3 7.36 4.83 7.36C4.36 7.36 3.92 7.49 3.54 7.75C3.16 7.49 2.72 7.36 2.25 7.36C1 7.36 0 8.32 0 9.5C0 9.96 0.14 10.38 0.41 10.73C0.14 11.08 0 11.51 0 11.96C0 12.4 0.14 12.82 0.41 13.18C0.15 13.52 0 13.95 0 14.4C0 15.58 1 16.54 2.25 16.54C2.72 16.54 3.17 16.39 3.54 16.15C3.92 16.41 4.36 16.54 4.83 16.54C5.3 16.54 5.74 16.41 6.12 16.15C6.51 16.41 6.95 16.54 7.41 16.54C7.88 16.54 8.34 16.39 8.7 16.15C9.09 16.41 9.53 16.54 10 16.54C10.46 16.54 10.9 16.41 11.29 16.15C11.65 16.39 12.11 16.54 12.58 16.54C13.04 16.54 13.48 16.41 13.87 16.15L13.87 17.94L15.71 19L16.45 19L16.45 16.15C17.04 15.75 17.41 15.1 17.41 14.4C17.41 13.21 16.41 12.25 15.16 12.25C14.69 12.25 14.25 12.39 13.87 12.64C13.48 12.39 13.03 12.25 12.58 12.25C12.11 12.25 11.67 12.39 11.29 12.64C10.92 12.4 10.48 12.25 10 12.25C9.53 12.25 9.09 12.39 8.7 12.64C8.32 12.39 7.88 12.25 7.41 12.25C6.95 12.25 6.51 12.39 6.12 12.64C5.74 12.39 5.3 12.25 4.83 12.25C4.72 12.25 4.59 12.27 4.48 12.28C4.49 12.17 4.51 12.06 4.51 11.94C4.51 11.83 4.49 11.71 4.48 11.61C4.59 11.62 4.7 11.63 4.83 11.63C5.31 11.63 5.75 11.48 6.12 11.24C6.49 11.51 6.95 11.65 7.41 11.65C7.88 11.65 8.32 11.51 8.7 11.25C9.07 11.5 9.53 11.65 10 11.65C10.46 11.65 10.9 11.51 11.29 11.25C11.67 11.51 12.11 11.65 12.58 11.65C13.04 11.65 13.48 11.51 13.87 11.25C14.24 11.5 14.69 11.65 15.16 11.65C15.64 11.65 16.08 11.5 16.45 11.25C16.83 11.51 17.27 11.65 17.74 11.65C18.99 11.65 20 10.69 20 9.5C20 9.06 19.85 8.64 19.58 8.27C19.85 7.91 20 7.49 20 7.05C19.98 6.59 19.84 6.17 19.58 5.82ZM18.93 8.48C19.2 8.76 19.34 9.12 19.34 9.5C19.34 10.35 18.62 11.04 17.73 11.04C17.44 11.04 17.16 10.96 16.92 10.84C17.21 10.47 17.4 10.01 17.4 9.52L16.76 9.52C16.76 10.36 16.04 11.05 15.14 11.05C14.46 11.05 13.85 10.65 13.63 10.03L13.02 10.22C13.1 10.45 13.21 10.65 13.37 10.82C12.79 11.13 12.01 11.08 11.5 10.63L11.29 10.46L11.06 10.63C10.78 10.89 10.39 11.03 10 11.03C9.31 11.03 8.72 10.62 8.48 10.01L7.87 10.23C7.95 10.45 8.07 10.65 8.22 10.82C7.73 11.08 7.1 11.08 6.62 10.82C6.9 10.46 7.09 10 7.09 9.5L6.45 9.5C6.45 10.35 5.73 11.04 4.83 11.04C4.62 11.04 4.42 11 4.24 10.93C4.05 10.61 3.78 10.34 3.46 10.14L3.1 10.65C3.57 10.93 3.85 11.42 3.85 11.94C3.85 12.14 3.81 12.33 3.74 12.51C3.04 12.87 2.56 13.57 2.56 14.38L3.2 14.38C3.2 13.53 3.92 12.85 4.82 12.85C5.21 12.85 5.6 12.98 5.9 13.24L6.11 13.43L6.32 13.24C6.85 12.83 7.63 12.77 8.22 13.08C7.91 13.45 7.74 13.91 7.74 14.4L8.38 14.4C8.38 13.97 8.58 13.55 8.92 13.25C9.21 13.01 9.6 12.87 10 12.87C10.89 12.87 11.61 13.56 11.61 14.41L12.25 14.41C12.25 13.91 12.07 13.45 11.77 13.09C12.35 12.78 13.13 12.83 13.65 13.26L13.87 13.45L14.08 13.26C14.38 13.01 14.76 12.87 15.16 12.87C16.05 12.87 16.78 13.56 16.78 14.41C16.78 14.95 16.46 15.46 15.97 15.73L15.81 15.83L15.81 18.35L14.52 17.61L14.52 15.83L14.36 15.73C14.26 15.68 14.18 15.61 14.09 15.54L13.88 15.35L13.67 15.54C13.37 15.8 12.99 15.93 12.59 15.93C11.92 15.93 11.31 15.54 11.09 14.95L10.48 15.17C10.56 15.37 10.68 15.56 10.82 15.73C10.32 15.99 9.7 15.99 9.21 15.73C9.37 15.54 9.48 15.34 9.57 15.11L8.93 14.91C8.7 15.53 8.09 15.93 7.41 15.93C7.02 15.93 6.63 15.8 6.34 15.54L6.12 15.35L5.91 15.54C5.4 15.97 4.62 16.04 4.04 15.72C4.19 15.53 4.31 15.33 4.39 15.1L3.78 14.9C3.56 15.52 2.95 15.92 2.26 15.92C1.37 15.92 0.65 15.23 0.65 14.38C0.65 13.53 1.37 12.85 2.26 12.85L2.26 12.25C1.74 12.25 1.26 12.43 0.87 12.71C0.73 12.48 0.66 12.21 0.66 11.94C0.66 11.67 0.73 11.4 0.87 11.17C1.17 11.39 1.51 11.54 1.91 11.61L2.01 11C1.21 10.89 0.63 10.26 0.63 9.5C0.63 8.65 1.36 7.96 2.25 7.96C2.65 7.96 3.03 8.1 3.33 8.36L3.54 8.54L3.75 8.36C4.26 7.92 5.04 7.86 5.63 8.18C5.48 8.36 5.37 8.56 5.29 8.79L5.9 8.99C6.12 8.38 6.73 7.96 7.41 7.96C8.31 7.96 9.03 8.65 9.03 9.5L9.67 9.5C9.67 9 9.48 8.54 9.19 8.18C9.77 7.87 10.55 7.92 11.06 8.36L11.27 8.54L11.5 8.36C11.8 8.1 12.18 7.96 12.58 7.96C13.46 7.96 14.18 8.65 14.18 9.5L14.82 9.5C14.82 9 14.63 8.54 14.34 8.18C14.76 7.95 15.29 7.91 15.75 8.09C15.84 8.22 15.94 8.36 16.05 8.48L16.53 8.07C16.26 7.79 16.12 7.43 16.12 7.05C16.12 6.85 16.17 6.66 16.24 6.47C16.38 6.39 16.52 6.29 16.65 6.18L16.22 5.73C15.92 5.98 15.54 6.12 15.14 6.12C14.46 6.12 13.85 5.71 13.63 5.09L13.02 5.31C13.1 5.54 13.21 5.74 13.37 5.91C12.79 6.22 12.01 6.17 11.5 5.74L11.29 5.55L11.06 5.74C10.55 6.17 9.77 6.22 9.19 5.91C9.33 5.74 9.46 5.54 9.54 5.31L8.93 5.11C8.7 5.71 8.09 6.13 7.41 6.13C7.02 6.13 6.63 6 6.34 5.74L6.12 5.55L5.91 5.74C5.61 5.98 5.23 6.13 4.83 6.13C3.94 6.13 3.21 5.44 3.21 4.59C3.21 4.05 3.53 3.54 4.02 3.27L4.18 3.18L4.18 0.66L5.47 1.4L5.47 3.18L5.63 3.27C5.73 3.33 5.81 3.39 5.9 3.46L6.12 3.64L6.34 3.45C6.85 3.02 7.63 2.96 8.22 3.27C7.91 3.64 7.74 4.09 7.74 4.59L8.38 4.59C8.38 3.74 9.1 3.06 10 3.06C10.39 3.06 10.78 3.19 11.07 3.45L11.29 3.64L11.5 3.45C11.8 3.19 12.18 3.06 12.58 3.06C13.46 3.06 14.18 3.74 14.18 4.59L14.82 4.59C14.82 4.09 14.63 3.64 14.34 3.27C14.92 2.96 15.7 3.02 16.22 3.45L16.43 3.64L16.65 3.45C16.95 3.19 17.33 3.06 17.73 3.06C18.62 3.06 19.34 3.74 19.34 4.59C19.34 4.86 19.26 5.13 19.13 5.36C18.75 5.08 18.26 4.9 17.74 4.9L17.74 5.51C18.63 5.51 19.36 6.2 19.36 7.05C19.36 7.43 19.21 7.79 18.95 8.07L18.75 8.27L18.93 8.48Z" fill="#961914" fill-opacity="1.000000" fill-rule="nonzero"/>
</svg>
