<svg width="20.000000" height="20.000000" viewBox="0 0 20 20" fill="none" xmlns="http://www.w3.org/2000/svg" xmlns:xlink="http://www.w3.org/1999/xlink">
	<desc>
			Created with Pixso.
	</desc>
	<defs>
		<clipPath id="clip137_454">
			<rect width="20.000000" height="20.000000" fill="white" fill-opacity="0"/>
		</clipPath>
	</defs>
	<rect width="20.000000" height="20.000000" fill="#FFFFFF" fill-opacity="0"/>
	<g clip-path="url(#clip137_454)">
		<path d="M19.28 3.15C18.82 2.69 18.18 2.43 17.53 2.43C17.53 1.79 17.27 1.18 16.81 0.72C15.85 -0.23 14.28 -0.23 13.33 0.72C12.5 1.53 12.4 2.78 12.96 3.73L3.77 12.96C2.84 12.39 1.55 12.48 0.72 13.33C-0.23 14.28 -0.23 15.85 0.72 16.8C1.18 17.26 1.82 17.53 2.47 17.53C2.47 18.18 2.73 18.81 3.19 19.27C4.14 20.22 5.71 20.22 6.67 19.27C7.58 18.35 7.62 16.91 6.84 15.96L15.96 6.8C16.93 7.58 18.38 7.53 19.28 6.63C20.23 5.67 20.23 4.1 19.28 3.15ZM18.45 5.8C17.95 6.29 17.09 6.31 16.58 5.8C16.51 5.73 16.47 5.69 16.42 5.62C16.22 5.34 15.82 5.3 15.57 5.55C15.55 5.57 5.61 15.55 5.57 15.6C5.36 15.87 5.4 16.26 5.68 16.45C6.33 16.93 6.4 17.9 5.84 18.44C5.34 18.94 4.51 18.94 4.02 18.44C3.67 18.09 3.54 17.51 3.74 17.01C3.93 16.54 3.46 16.06 2.98 16.26C2.5 16.45 1.92 16.33 1.55 15.97C0.76 15.18 1.29 13.77 2.49 13.77C2.84 13.77 3.17 13.91 3.42 14.14C3.65 14.37 4.02 14.37 4.25 14.14C14.87 3.47 14.21 4.16 14.28 4.02C14.39 3.79 14.34 3.52 14.16 3.35C13.67 2.85 13.67 2.02 14.16 1.53C14.66 1.04 15.48 1.04 15.98 1.53C16.35 1.9 16.45 2.43 16.26 2.9C16.21 3.03 16.21 3.19 16.26 3.33C16.38 3.63 16.72 3.77 17.02 3.66C17.49 3.47 18.08 3.59 18.45 3.95C18.96 4.47 18.96 5.29 18.45 5.8Z" fill="#961914" fill-opacity="1.000000" fill-rule="nonzero"/>
		<path d="M6.47 7.23C6.7 7.46 7.07 7.46 7.3 7.23C7.53 7 7.53 6.63 7.3 6.4L5.3 4.4C5.07 4.18 4.7 4.18 4.47 4.4C4.25 4.63 4.25 5 4.47 5.23L6.47 7.23Z" fill="#961914" fill-opacity="1.000000" fill-rule="nonzero"/>
		<path d="M2.18 9.33L4.99 9.33C5.3 9.33 5.57 9.06 5.57 8.74C5.57 8.43 5.3 8.16 4.99 8.16L2.18 8.16C1.86 8.16 1.6 8.43 1.6 8.74C1.6 9.08 1.86 9.33 2.18 9.33Z" fill="#961914" fill-opacity="1.000000" fill-rule="nonzero"/>
		<path d="M8.81 5.52C9.13 5.52 9.4 5.25 9.4 4.93L9.4 2.11C9.4 1.79 9.13 1.53 8.81 1.53C8.5 1.53 8.23 1.79 8.23 2.11L8.23 4.93C8.23 5.25 8.48 5.52 8.81 5.52Z" fill="#961914" fill-opacity="1.000000" fill-rule="nonzero"/>
		<path d="M13.59 12.76C13.36 12.53 12.99 12.53 12.76 12.76C12.53 12.99 12.53 13.36 12.76 13.59L14.76 15.59C14.86 15.69 15.02 15.76 15.16 15.76C15.67 15.76 15.94 15.13 15.57 14.76L13.59 12.76Z" fill="#961914" fill-opacity="1.000000" fill-rule="nonzero"/>
		<path d="M17.88 10.67L15.06 10.67C14.74 10.67 14.47 10.93 14.47 11.25C14.47 11.56 14.74 11.83 15.06 11.83L17.86 11.83C18.18 11.83 18.44 11.56 18.44 11.25C18.46 10.93 18.2 10.67 17.88 10.67Z" fill="#961914" fill-opacity="1.000000" fill-rule="nonzero"/>
		<path d="M11.25 14.47C10.93 14.47 10.67 14.74 10.67 15.06L10.67 17.86C10.67 18.18 10.93 18.44 11.25 18.44C11.56 18.44 11.83 18.18 11.83 17.86L11.83 15.06C11.83 14.74 11.56 14.47 11.25 14.47Z" fill="#961914" fill-opacity="1.000000" fill-rule="nonzero"/>
	</g>
</svg>
