<svg width="20.000000" height="14.000000" viewBox="0 0 20 14" fill="none" xmlns="http://www.w3.org/2000/svg" xmlns:xlink="http://www.w3.org/1999/xlink">
	<desc>
			Created with Pixso.
	</desc>
	<defs>
		<clipPath id="clip137_428">
			<rect width="20.000000" height="14.000000" fill="white" fill-opacity="0"/>
		</clipPath>
	</defs>
	<rect width="20.000000" height="14.000000" fill="#FFFFFF" fill-opacity="0"/>
	<g clip-path="url(#clip137_428)">
		<path d="M18.29 2.43C17.37 1.78 16.09 1.25 14.47 0.85C11.34 0.08 7.81 0 6.44 0C2.89 0 0 2.59 0 5.77L0 8.22C0 11.4 2.89 14 6.44 14C8.07 14 9.31 13.53 10.61 13.05C11.96 12.54 13.35 12.02 15.32 12.02C17.9 12.02 20 10.14 20 7.83L20 5.38C20 4.23 19.42 3.24 18.29 2.43ZM17.96 8.42C18.11 8.56 18.36 8.57 18.51 8.43C18.78 8.21 19.01 7.95 19.21 7.69L19.21 7.83C19.21 9.76 17.46 11.33 15.3 11.33C13.19 11.33 11.72 11.88 10.31 12.4C9.08 12.87 7.92 13.3 6.44 13.3C3.44 13.3 0.97 11.2 0.78 8.54C1.88 10.34 4 11.55 6.44 11.55C8.07 11.55 9.31 11.09 10.61 10.6C11.96 10.09 13.35 9.58 15.32 9.58C15.46 9.58 15.61 9.57 15.75 9.56C15.96 9.54 16.13 9.37 16.1 9.18C16.08 8.99 15.89 8.84 15.68 8.86C15.56 8.87 15.43 8.87 15.32 8.87C13.2 8.87 11.73 9.42 10.32 9.95C9.08 10.42 7.92 10.85 6.44 10.85C3.31 10.85 0.77 8.58 0.77 5.77C0.77 2.97 3.31 0.69 6.44 0.69C7.78 0.69 11.22 0.78 14.26 1.52C17.54 2.34 19.21 3.63 19.21 5.38C19.21 6.34 18.76 7.27 17.97 7.92C17.82 8.06 17.82 8.28 17.96 8.42Z" fill="#961914" fill-opacity="1.000000" fill-rule="nonzero"/>
		<path d="M17.64 8.64C17.55 8.46 17.31 8.39 17.13 8.47L17.11 8.47C16.93 8.56 16.84 8.77 16.94 8.95C17.01 9.07 17.15 9.14 17.29 9.14C17.35 9.14 17.41 9.12 17.47 9.1C17.66 9.02 17.74 8.82 17.64 8.64Z" fill="#961914" fill-opacity="1.000000" fill-rule="nonzero"/>
		<path d="M9.26 1.49L9.24 1.49C9.03 1.48 8.84 1.62 8.81 1.82C8.8 2.01 8.95 2.18 9.17 2.2L9.19 2.2C9.2 2.2 9.21 2.2 9.22 2.2C9.42 2.2 9.6 2.06 9.61 1.87C9.64 1.68 9.47 1.51 9.26 1.49Z" fill="#961914" fill-opacity="1.000000" fill-rule="nonzero"/>
		<path d="M18.18 4.44C17.8 3.75 16.94 3.16 15.62 2.67C14.56 2.28 13.4 2.03 12.61 1.89C12.14 1.81 11.65 1.73 11.14 1.67C10.93 1.65 10.73 1.79 10.71 1.98C10.67 2.17 10.82 2.35 11.04 2.37C11.53 2.43 12 2.5 12.46 2.58C15.14 3.05 16.97 3.84 17.49 4.75C17.6 4.94 17.66 5.15 17.66 5.38C17.66 6.54 16.61 7.48 15.32 7.48C14.01 7.48 12.75 7.67 11.45 8.06C10.88 8.23 10.34 8.43 9.81 8.63C9.46 8.76 9.11 8.89 8.74 9.01C7.85 9.32 7.16 9.45 6.44 9.45C4.18 9.45 2.33 7.81 2.33 5.77C2.33 3.75 4.17 2.09 6.44 2.09C6.89 2.09 7.33 2.1 7.77 2.11C7.84 2.11 7.92 2.11 7.99 2.12C8.21 2.14 8.39 1.99 8.4 1.79C8.41 1.6 8.25 1.43 8.03 1.42C7.94 1.42 7.87 1.41 7.79 1.41C7.34 1.41 6.89 1.4 6.44 1.4C3.75 1.4 1.56 3.36 1.56 5.77C1.56 8.19 3.75 10.15 6.44 10.15C7.26 10.15 8.03 10 9.02 9.66C9.39 9.55 9.75 9.41 10.11 9.27C10.62 9.08 11.15 8.88 11.68 8.72C12.91 8.35 14.08 8.18 15.3 8.18C17.02 8.18 18.42 6.92 18.42 5.38C18.43 5.03 18.35 4.73 18.18 4.44Z" fill="#961914" fill-opacity="1.000000" fill-rule="nonzero"/>
		<path d="M6.81 2.79C5.72 2.79 4.84 3.52 4.84 4.4C4.84 5.29 5.72 6 6.81 6C7.91 6 8.79 5.28 8.79 4.39C8.79 3.51 7.91 2.79 6.81 2.79ZM6.81 5.31C6.16 5.31 5.62 4.9 5.62 4.4C5.62 3.9 6.16 3.5 6.81 3.5C7.47 3.5 8.01 3.9 8.01 4.4C8.01 4.91 7.47 5.31 6.81 5.31Z" fill="#961914" fill-opacity="1.000000" fill-rule="nonzero"/>
	</g>
</svg>
