<svg width="20.000000" height="21.000000" viewBox="0 0 20 21" fill="none" xmlns="http://www.w3.org/2000/svg" xmlns:xlink="http://www.w3.org/1999/xlink">
	<desc>
			Created with Pixso.
	</desc>
	<defs>
		<clipPath id="clip137_501">
			<rect width="20.000000" height="21.000000" fill="white" fill-opacity="0"/>
		</clipPath>
	</defs>
	<rect width="20.000000" height="21.000000" fill="#FFFFFF" fill-opacity="0"/>
	<g clip-path="url(#clip137_501)">
		<path d="M7.24 8.89C6.93 7.81 5.99 7.08 4.91 7.08C3.83 7.08 2.89 7.81 2.58 8.89C1.81 9.4 1.17 10.18 0.71 11.15C0.24 12.16 0 13.34 0 14.59C0 16.28 0.45 17.86 1.28 19.01C2.19 20.29 3.48 20.98 4.91 20.98C6.34 20.98 7.63 20.29 8.54 19.01C8.64 18.87 8.61 18.69 8.48 18.58C8.35 18.48 8.17 18.51 8.07 18.64C7.28 19.75 6.15 20.37 4.91 20.37C3.67 20.37 2.54 19.75 1.75 18.64C0.99 17.58 0.58 16.14 0.58 14.59C0.58 13.44 0.8 12.33 1.24 11.42C1.66 10.52 2.26 9.81 2.99 9.37C3.07 9.32 3.11 9.26 3.13 9.17C3.33 8.31 4.06 7.69 4.91 7.69C5.76 7.69 6.51 8.29 6.7 9.17C6.71 9.24 6.77 9.32 6.83 9.37C7.56 9.81 8.16 10.53 8.58 11.42C9.01 12.35 9.24 13.44 9.24 14.59C9.24 15.62 9.07 16.6 8.71 17.46C8.66 17.62 8.71 17.8 8.88 17.86C9.02 17.92 9.2 17.86 9.26 17.69C9.64 16.76 9.83 15.7 9.83 14.59C9.83 13.34 9.58 12.15 9.11 11.15C8.67 10.18 8.01 9.4 7.24 8.89Z" fill="#961914" fill-opacity="1.000000" fill-rule="nonzero"/>
		<path d="M2.72 12.67C2.56 12.62 2.39 12.71 2.35 12.88C2.2 13.41 2.13 13.99 2.13 14.59C2.13 17 3.3 18.74 4.91 18.74C6.52 18.74 7.69 16.99 7.69 14.59C7.69 12.19 6.52 10.44 4.91 10.44C4.18 10.44 3.51 10.81 3.01 11.49C2.91 11.62 2.94 11.81 3.05 11.92C3.18 12.02 3.36 11.99 3.46 11.85C3.86 11.33 4.35 11.06 4.91 11.06C6.18 11.06 7.11 12.55 7.11 14.59C7.11 16.63 6.18 18.12 4.91 18.12C3.64 18.12 2.72 16.63 2.72 14.59C2.72 14.04 2.79 13.51 2.92 13.05C2.97 12.88 2.86 12.71 2.72 12.67Z" fill="#961914" fill-opacity="1.000000" fill-rule="nonzero"/>
		<path d="M18.71 1.96C17.8 0.69 16.51 0 15.08 0C13.65 0 12.34 0.69 11.45 1.96C10.87 2.78 10.46 3.82 10.28 4.97C10.24 5.13 10.35 5.29 10.51 5.33C10.68 5.34 10.82 5.23 10.85 5.06C11.01 4.02 11.38 3.07 11.92 2.33C12.71 1.22 13.82 0.61 15.08 0.61C16.32 0.61 17.45 1.22 18.24 2.33C19 3.39 19.41 4.83 19.41 6.39C19.41 7.54 19.19 8.64 18.75 9.55C18.33 10.46 17.73 11.16 17 11.61C16.92 11.65 16.88 11.72 16.86 11.81C16.66 12.67 15.93 13.28 15.08 13.28C14.23 13.28 13.48 12.68 13.29 11.81C13.27 11.73 13.22 11.67 13.15 11.62C12.42 11.18 11.82 10.46 11.39 9.57C10.97 8.64 10.75 7.54 10.75 6.39C10.75 6.22 10.62 6.08 10.46 6.08C10.3 6.08 10.16 6.22 10.16 6.39C10.16 7.63 10.41 8.83 10.88 9.83C11.33 10.79 11.98 11.58 12.75 12.09C13.06 13.16 14 13.9 15.08 13.9C16.16 13.9 17.1 13.16 17.41 12.09C18.18 11.58 18.84 10.79 19.28 9.83C19.75 8.83 20 7.63 20 6.39C20 4.7 19.53 3.13 18.71 1.96Z" fill="#961914" fill-opacity="1.000000" fill-rule="nonzero"/>
		<path d="M17.36 8.03C17.52 8.06 17.68 7.97 17.71 7.8C17.82 7.35 17.86 6.88 17.86 6.39C17.86 3.97 16.69 2.24 15.08 2.24C13.47 2.24 12.28 3.99 12.28 6.39C12.28 8.78 13.46 10.53 15.06 10.53C15.93 10.53 16.69 10.03 17.22 9.12C17.3 8.97 17.24 8.78 17.11 8.71C16.97 8.61 16.79 8.67 16.72 8.81C16.31 9.53 15.72 9.93 15.08 9.93C13.81 9.93 12.88 8.44 12.88 6.4C12.88 4.36 13.81 2.87 15.08 2.87C16.35 2.87 17.27 4.36 17.27 6.4C17.27 6.85 17.23 7.28 17.14 7.68C17.1 7.83 17.2 8 17.36 8.03Z" fill="#961914" fill-opacity="1.000000" fill-rule="nonzero"/>
		<path d="M4.28 15.97C4.28 15.8 4.15 15.66 3.99 15.66C3.83 15.66 3.7 15.8 3.7 15.97C3.7 16.14 3.83 16.28 3.99 16.28C4.15 16.28 4.28 16.14 4.28 15.97Z" fill="#961914" fill-opacity="1.000000" fill-rule="nonzero"/>
		<path d="M5.45 16.83C5.45 17 5.32 17.14 5.16 17.14C5 17.14 4.87 17 4.87 16.83C4.87 16.66 5 16.52 5.16 16.52C5.32 16.52 5.45 16.66 5.45 16.83Z" fill="#961914" fill-opacity="1.000000" fill-rule="evenodd"/>
		<path d="M5.96 12.7C5.96 12.87 5.83 13.01 5.67 13.01C5.51 13.01 5.38 12.87 5.38 12.7C5.38 12.53 5.51 12.39 5.67 12.39C5.83 12.39 5.96 12.53 5.96 12.7Z" fill="#961914" fill-opacity="1.000000" fill-rule="evenodd"/>
		<path d="M13.85 5.02C13.85 5.19 13.98 5.33 14.14 5.33C14.3 5.33 14.44 5.19 14.44 5.02C14.44 4.85 14.3 4.71 14.14 4.71C13.98 4.71 13.85 4.85 13.85 5.02Z" fill="#961914" fill-opacity="1.000000" fill-rule="nonzero"/>
		<path d="M15.61 4.16C15.61 4.33 15.47 4.47 15.31 4.47C15.15 4.47 15.02 4.33 15.02 4.16C15.02 3.99 15.15 3.85 15.31 3.85C15.47 3.85 15.61 3.99 15.61 4.16Z" fill="#961914" fill-opacity="1.000000" fill-rule="evenodd"/>
		<path d="M16.13 8.29C16.13 8.46 16 8.6 15.84 8.6C15.68 8.6 15.55 8.46 15.55 8.29C15.55 8.12 15.68 7.98 15.84 7.98C16 7.98 16.13 8.12 16.13 8.29Z" fill="#961914" fill-opacity="1.000000" fill-rule="evenodd"/>
	</g>
</svg>
