<svg width="20.000000" height="20.000000" viewBox="0 0 20 20" fill="none" xmlns="http://www.w3.org/2000/svg" xmlns:xlink="http://www.w3.org/1999/xlink">
	<desc>
			Created with Pixso.
	</desc>
	<defs>
		<clipPath id="clip137_471">
			<rect width="20.000000" height="20.000000" fill="white" fill-opacity="0"/>
		</clipPath>
	</defs>
	<rect width="20.000000" height="20.000000" fill="#FFFFFF" fill-opacity="0"/>
	<g clip-path="url(#clip137_471)">
		<path d="M20 11.27C20 9.87 19.31 8.52 18.17 7.68C17.94 7.51 17.66 7.41 17.36 7.41C17 7.41 16.66 7.56 16.41 7.8C16.36 7.77 16.31 7.72 16.27 7.68C16.09 7.54 15.88 7.46 15.66 7.44L15.8 5.87C15.8 5.84 15.8 5.8 15.8 5.76C15.8 5.06 15.23 4.51 14.55 4.51L14.47 4.51C13.78 4.51 13.22 5.07 13.22 5.76C13.22 5.79 13.22 5.83 13.22 5.87L13.36 7.45C13.16 7.48 12.96 7.57 12.8 7.7C12.74 7.74 12.69 7.79 12.63 7.84C12.61 7.8 12.58 7.78 12.54 7.76C12.56 7.64 12.58 7.52 12.58 7.41C12.58 7 12.45 6.61 12.21 6.29C12.45 5.96 12.58 5.57 12.58 5.16C12.58 4.05 11.65 3.16 10.53 3.23C10.32 2.64 9.84 2.18 9.25 2.02C8.85 1.52 8.26 1.25 7.63 1.29C7.36 0.52 6.64 0 5.8 0C5.1 0 4.46 0.37 4.12 0.96C3.28 0.99 2.53 1.59 2.32 2.42C1.32 2.79 0.64 3.76 0.64 4.83C0.64 5.69 1.06 6.49 1.77 6.96C1.66 7.2 1.61 7.47 1.61 7.73C1.61 8.31 1.86 8.85 2.31 9.21C2.28 9.37 2.25 9.52 2.25 9.67C2.25 10.66 2.99 11.48 3.96 11.59L4.67 13.59C4.31 13.86 3.99 14.2 3.76 14.57L2.06 14.2C2.01 14.19 1.94 14.17 1.86 14.17C1.37 14.17 0.96 14.57 0.96 15.08L0.96 15.21C0.96 15.3 0.97 15.39 1.01 15.47L0.96 15.47C0.43 15.48 0 15.92 0 16.44C0 16.97 0.43 17.41 0.96 17.41L1.01 17.41C0.98 17.49 0.96 17.57 0.96 17.67L0.96 17.8C0.96 18.29 1.36 18.7 1.86 18.7C1.94 18.7 1.99 18.69 2.06 18.68L3.76 18.3C4.38 19.31 5.5 20 6.77 20L6.84 20C7.01 20 7.2 19.98 7.38 19.95L18.44 18.24C19.34 18.1 20 17.35 20 16.43C20 15.7 19.57 15.08 18.95 14.79C19.62 13.99 20 12.98 20 11.93L20 11.27ZM15.88 8.2C16.84 8.94 17.42 10.11 17.42 11.34L17.42 12.53C17.42 13.19 17.26 13.83 16.95 14.41L14.36 14.01C14.26 13.54 14.2 13.07 14.2 12.59L14.2 11.27C14.2 10.94 14.23 10.62 14.28 10.29C14.36 10.31 14.43 10.31 14.52 10.31C15.43 10.31 16.13 9.9 16.13 9.34C16.13 9.04 15.92 8.77 15.55 8.59L15.6 8.07C15.69 8.1 15.79 8.13 15.88 8.2ZM14.47 5.16L14.55 5.16C14.88 5.16 15.15 5.43 15.15 5.76C15.15 5.78 15.15 5.79 15.15 5.82L14.86 9.04L15.1 9.12C15.39 9.21 15.48 9.33 15.48 9.35C15.48 9.44 15.14 9.67 14.52 9.67C13.89 9.67 13.55 9.42 13.55 9.35C13.55 9.33 13.65 9.21 13.93 9.12L14.17 9.04L13.87 5.82C13.87 5.79 13.87 5.78 13.87 5.76C13.87 5.43 14.14 5.16 14.47 5.16ZM13.42 8.08L13.47 8.59C13.1 8.77 12.89 9.04 12.89 9.34C12.89 9.7 13.19 9.99 13.63 10.17C13.58 10.53 13.54 10.91 13.54 11.27L13.54 12.58C13.54 13.02 13.59 13.46 13.67 13.89L11.76 13.6C11.66 13.25 11.6 12.88 11.6 12.51L11.6 11.34C11.6 10.12 12.19 8.94 13.18 8.2C13.26 8.14 13.34 8.11 13.42 8.08ZM9.94 13.33C9.77 12.88 9.67 12.42 9.67 11.94L9.67 11.27C9.67 10.07 10.26 8.92 11.24 8.2C11.35 8.11 11.51 8.06 11.66 8.06C11.86 8.06 12.04 8.14 12.16 8.27C11.4 9.11 10.97 10.2 10.97 11.34L10.97 12.53C10.97 12.86 11 13.19 11.07 13.52L9.94 13.33ZM9.97 3.64L10.02 3.97L10.35 3.9C10.46 3.88 10.55 3.86 10.64 3.86C11.35 3.86 11.93 4.44 11.93 5.16C11.93 5.5 11.8 5.82 11.56 6.06L11.34 6.29L11.56 6.51C11.8 6.76 11.93 7.07 11.93 7.41C11.93 7.43 11.93 7.44 11.93 7.44C11.84 7.43 11.75 7.41 11.66 7.41C11.36 7.41 11.08 7.51 10.85 7.68C10.26 8.11 9.8 8.68 9.48 9.32C9.37 8.94 9.24 8.58 9.11 8.23C9.4 6.65 10.51 5.74 10.52 5.73L10.32 5.47L10.12 5.23C10.07 5.26 9.2 5.98 8.71 7.26C8.04 5.72 7.4 4.72 7.37 4.66L6.81 5C6.83 5.02 7.32 5.79 7.88 7.03C6.93 6.66 5.83 6.77 5.77 6.77L5.83 7.41C6.31 7.37 7.68 7.39 8.33 8.05C8.55 8.6 8.78 9.21 8.98 9.87C8 9.35 6.83 9.35 6.77 9.35L6.77 9.99C6.78 9.99 8.21 10 9.07 10.67C9.05 10.87 9.02 11.07 9.02 11.27L9.02 11.95C9.02 12.39 9.1 12.81 9.21 13.22L7.38 12.94C7.28 12.93 7.19 12.92 7.1 12.91C6.38 12.91 5.8 12.32 5.8 11.6C5.8 11.45 5.84 11.29 5.9 11.14L5.99 10.89L5.76 10.77C5.38 10.53 5.16 10.12 5.16 9.67C5.16 9.41 5.23 9.17 5.37 8.95L5.57 8.65L5.25 8.5C4.59 8.17 4.19 7.51 4.19 6.77C4.19 5.91 4.77 5.14 5.59 4.91L5.79 4.85L5.83 4.64C5.91 4.02 6.46 3.55 7.1 3.55C7.11 3.55 7.12 3.55 7.13 3.55C7.16 3.55 7.18 3.56 7.2 3.56L7.44 3.58L7.52 3.36C7.72 2.88 8.19 2.57 8.71 2.57C9.33 2.57 9.86 3.03 9.97 3.64ZM4.42 10.97L4.19 10.97C3.48 10.97 2.9 10.39 2.9 9.67C2.9 9.52 2.93 9.37 2.99 9.21L3.09 8.97L2.85 8.83C2.48 8.59 2.25 8.18 2.25 7.73C2.25 7.47 2.32 7.23 2.46 7.01L2.66 6.71L2.35 6.56C1.69 6.23 1.29 5.57 1.29 4.83C1.29 3.97 1.86 3.2 2.69 2.97L2.89 2.91L2.92 2.7C3.02 2.08 3.56 1.59 4.19 1.59C4.2 1.59 4.22 1.59 4.23 1.59C4.25 1.59 4.27 1.59 4.3 1.61L4.53 1.63L4.63 1.42C4.82 0.95 5.29 0.64 5.8 0.64C6.43 0.64 6.96 1.09 7.07 1.71L7.13 2.04L7.46 1.97C7.57 1.95 7.65 1.94 7.74 1.94C7.9 1.94 8.04 1.97 8.17 2.02C7.68 2.15 7.27 2.46 7.03 2.9C6.17 2.92 5.44 3.53 5.23 4.36C4.23 4.72 3.55 5.69 3.55 6.77C3.55 7.63 3.97 8.43 4.67 8.9C4.57 9.14 4.51 9.4 4.51 9.67C4.51 10.25 4.77 10.79 5.22 11.15C5.18 11.31 5.16 11.46 5.16 11.61C5.16 12.18 5.4 12.69 5.79 13.05C5.6 13.11 5.42 13.18 5.24 13.26L4.42 10.97ZM1.61 15.22L1.61 15.09C1.61 14.93 1.76 14.81 1.92 14.85L3.46 15.19C3.42 15.28 3.38 15.37 3.36 15.48L1.86 15.48C1.72 15.48 1.61 15.36 1.61 15.22ZM0.64 16.44C0.64 16.27 0.78 16.13 0.96 16.13L1.86 16.13L3.24 16.13C3.23 16.23 3.23 16.34 3.23 16.44C3.23 16.55 3.24 16.66 3.24 16.76L1.86 16.76L0.96 16.76C0.78 16.76 0.64 16.62 0.64 16.44ZM1.92 18.05C1.77 18.09 1.61 17.96 1.61 17.81L1.61 17.68C1.61 17.54 1.72 17.42 1.86 17.42L3.36 17.42C3.38 17.53 3.42 17.62 3.45 17.71L1.92 18.05ZM19.35 16.44C19.35 17.03 18.93 17.53 18.35 17.61L7.28 19.31C7.14 19.34 6.99 19.35 6.84 19.35L6.77 19.35C5.17 19.35 3.86 18.04 3.86 16.44C3.86 14.85 5.17 13.54 6.77 13.54L6.84 13.54C6.98 13.54 7.13 13.55 7.28 13.58L18.35 15.28C18.93 15.36 19.35 15.86 19.35 16.44ZM19.35 11.94C19.35 12.93 18.95 13.89 18.24 14.61L17.6 14.52C17.89 13.89 18.04 13.22 18.04 12.53L18.04 11.34C18.04 10.2 17.61 9.1 16.86 8.26C16.99 8.14 17.16 8.06 17.35 8.06C17.5 8.06 17.66 8.11 17.77 8.2C18.75 8.92 19.34 10.07 19.34 11.27L19.35 11.94Z" fill="#961914" fill-opacity="1.000000" fill-rule="nonzero"/>
		<path d="M6.45 14.83L7.1 14.83L7.1 18.06L6.45 18.06L6.45 14.83Z" fill="#961914" fill-opacity="1.000000" fill-rule="nonzero"/>
		<path d="M9.02 14.83L9.67 14.83L9.67 18.06L9.02 18.06L9.02 14.83Z" fill="#961914" fill-opacity="1.000000" fill-rule="nonzero"/>
		<path d="M11.61 14.83L12.26 14.83L12.26 18.06L11.61 18.06L11.61 14.83Z" fill="#961914" fill-opacity="1.000000" fill-rule="nonzero"/>
		<path d="M14.19 15.48L14.83 15.48L14.83 17.42L14.19 17.42L14.19 15.48Z" fill="#961914" fill-opacity="1.000000" fill-rule="nonzero"/>
		<path d="M16.76 15.8L17.41 15.8L17.41 17.09L16.76 17.09L16.76 15.8Z" fill="#961914" fill-opacity="1.000000" fill-rule="nonzero"/>
	</g>
</svg>
