<svg width="20.000000" height="15.000000" viewBox="0 0 20 15" fill="none" xmlns="http://www.w3.org/2000/svg" xmlns:xlink="http://www.w3.org/1999/xlink">
	<desc>
			Created with Pixso.
	</desc>
	<defs>
		<clipPath id="clip137_483">
			<rect width="20.000000" height="15.000000" fill="white" fill-opacity="0"/>
		</clipPath>
	</defs>
	<rect width="20.000000" height="15.000000" fill="#FFFFFF" fill-opacity="0"/>
	<g clip-path="url(#clip137_483)">
		<path d="M13.63 0.35C13.36 0.35 13.18 0.55 13.18 0.85C13.18 1.14 13.36 1.35 13.63 1.35C16.64 1.35 19.09 1.44 19.09 2.25C19.09 4.2 14.59 6.39 11.95 7.65C11.63 7.36 11.4 6.66 11.4 6.1C11.4 5.54 11.58 5.04 11.89 4.7C12.39 4.2 12.67 3.4 12.67 2.6C12.67 1.66 12.22 0.8 11.44 0.4C11.4 0.35 11.3 0.35 11.26 0.35C10.64 0.29 9.95 0.24 9.31 0.2C8.27 0.09 7.18 0 6.18 0C3.23 0 1.77 1.44 1.04 2.65C0.55 3.49 0 5.04 0 6.45C0 7.81 0.55 9.56 0.95 10.96C1.04 11.21 1.1 11.45 1.18 11.66C1.27 11.95 1.36 12.25 1.41 12.5C1.82 13.89 2.08 15 3.31 15C3.99 15 4.77 14.19 6.08 12.74C6.95 11.8 7.96 10.76 8.59 10.4C9.04 10.15 9.59 9.9 10.19 9.65C10.41 9.54 10.5 9.25 10.41 9C10.33 8.75 10.04 8.64 9.82 8.75C9.23 9.05 8.68 9.3 8.22 9.5C7.41 9.9 6.4 11 5.46 12.04C4.72 12.81 3.64 14 3.31 14C2.86 14 2.68 13.64 2.31 12.2C2.23 11.95 2.18 11.66 2.08 11.35C2 11.1 1.94 10.85 1.86 10.6C1.45 9.25 0.95 7.6 0.95 6.45C0.95 5.15 1.51 3.8 1.82 3.26C2.68 1.75 4.17 0.99 6.22 0.99C7.18 0.99 8.27 1.08 9.31 1.19C9.95 1.24 10.58 1.28 11.22 1.35C11.63 1.59 11.85 2.04 11.85 2.6C11.85 3.16 11.67 3.66 11.36 4C10.86 4.5 10.59 5.29 10.59 6.1C10.59 6.84 10.92 8.15 11.82 8.64C11.96 8.69 12.09 8.69 12.19 8.64C16.1 6.75 20.01 4.7 20.01 2.25C20 0.45 17.68 0.35 13.63 0.35Z" fill="#961914" fill-opacity="1.000000" fill-rule="nonzero"/>
	</g>
</svg>
